<svg id="Icon-2" xmlns="http://www.w3.org/2000/svg" width="153" height="132" viewBox="0 0 153 132">
  <g id="location" transform="translate(21 -0.08)">
    <ellipse id="Elipse_4" data-name="Elipse 4" cx="65.979" cy="66" rx="65.979" ry="66" transform="translate(0 0.08)" fill="#ff873d"/>
    <path id="Caminho_30" data-name="Caminho 30" d="M198.467,137.433a65.63,65.63,0,0,1-60.285,60.285l-34.443-34.443a42.642,42.642,0,0,1,14.092-70.743l.242-.081c.242-.081.444-.161.686-.242l.242-.081h.04a39.791,39.791,0,0,1,4.886-1.373h0l.242-.04a4.685,4.685,0,0,0,.727-.161l.242-.04c.646-.121,1.292-.242,1.938-.323h0a42.643,42.643,0,0,1,6.016-.444h4.239l.242.04h2.18l.121.04.121.04h0l.121.04h0l.121.04.121.04h0l.121.04.121.04h0l.121.04h0l.121.04h0l.2.04h.2l.161.04h.2l.161.04h0l.161.04h0l.161.04h0l.161.04h0l.161.04h0l.161.081h.081l.161.081h0l.04.04h.081l.081.04h0l.161.081h0l.161.081.161.081h.04l.161.081h0l.161.081h0c.2.121.444.2.646.323h0c.2.121.444.242.646.363h0c.2.121.444.242.646.363h0c.2.121.4.242.646.363h0l.605.363h0a5.246,5.246,0,0,1,.605.4h0a5.249,5.249,0,0,1,.605.4h0c.2.121.4.283.605.4h0c.2.121.4.283.605.4h0a5.734,5.734,0,0,1,.605.444h0a6.885,6.885,0,0,1,.565.444h0c.2.161.363.283.565.444h0c.2.161.363.283.565.444h0a5.384,5.384,0,0,0,.565.444h0c.2.161.363.323.565.485h0a6.231,6.231,0,0,1,.525.485h0c.161.161.363.323.525.485h0c.161.161.363.323.525.485a6.452,6.452,0,0,1,.525.525h0a6.455,6.455,0,0,0,.525.525h0l.2.2h0l34.443,34.443Z" transform="translate(-66.467 -65.839)" fill="#e67733"/>
    <path id="Caminho_31" data-name="Caminho 31" d="M152.422,93.957l-.163-.082a7.58,7.58,0,0,0-.815-.408l-.163-.082h-.041c-.2-.082-.407-.2-.611-.285l-.163-.082-.163-.082c-.2-.082-.448-.2-.652-.285l-.163-.082-.081-.041c-.245-.082-.53-.2-.774-.285l-.163-.082c-.286-.082-.53-.2-.815-.285h-.041l-.163-.082c-.245-.082-.448-.163-.693-.245l-.163-.041-.163-.041a6.277,6.277,0,0,1-.693-.2l-.163-.041c-.286-.082-.611-.163-.9-.245l-.163-.041c-.286-.082-.611-.163-.9-.245l-.163-.041c-.244-.041-.489-.122-.734-.163l-.163-.041h-.081c-.285-.041-.571-.122-.856-.163l-.2-.041a40.442,40.442,0,0,0-8.071-.775V89.43a43.026,43.026,0,0,0-6.074.448c-.652.082-1.3.2-1.957.326l-.244.041a4.726,4.726,0,0,1-.734.163l-.245.041a40.159,40.159,0,0,0-4.932,1.387h-.041l-.245.082c-.245.082-.448.163-.693.245l-.245.082a43.071,43.071,0,0,0,0,80.422l.245.081c.245.082.448.163.693.245l.245.082h.041c1.631.53,3.261,1.02,4.932,1.387l.245.041a4.731,4.731,0,0,0,.734.163l.244.041c.652.122,1.3.245,1.957.326a42.585,42.585,0,0,0,6.074.448,43.684,43.684,0,0,0,8.071-.775l.2-.041c.285-.041.571-.122.856-.163h.081l.163-.041c.244-.041.489-.122.734-.163l.163-.041c.286-.082.611-.163.9-.245l.163-.041c.286-.082.611-.163.9-.245l.163-.041a6.336,6.336,0,0,0,.693-.2l.163-.041.163-.041c.245-.082.448-.163.693-.245l.163-.082h.041a6.441,6.441,0,0,0,.815-.285l.163-.082a5.921,5.921,0,0,0,.774-.285l.081-.041.163-.082c.2-.081.449-.2.652-.285l.163-.082.163-.082c.2-.081.408-.2.611-.285h.041l.163-.082a7.65,7.65,0,0,1,.815-.408l.163-.082a43.065,43.065,0,0,0,0-77.037Zm13.371,17.618a38.406,38.406,0,0,1,6.114,18.352h-7.745a43.208,43.208,0,0,0-4.321-16.354C161.879,112.962,163.876,112.309,165.792,111.575Zm-3.1-4.16c-1.753.612-3.587,1.142-5.462,1.631A43.475,43.475,0,0,0,142.068,94.9,38.705,38.705,0,0,1,162.694,107.415Zm-18.139,9.257a101.576,101.576,0,0,0,10.924-1.917,38.3,38.3,0,0,1,4.239,15.171h-13.9A93,93,0,0,0,144.555,116.672Zm1.264,18.556h13.941a38.5,38.5,0,0,1-3.383,13.336,93.914,93.914,0,0,0-11.5-2.121A91.165,91.165,0,0,0,145.818,135.228Zm6.848-25.081-.041-.041a91.964,91.964,0,0,1-9.09,1.427,83.539,83.539,0,0,0-4.036-13.01A38.794,38.794,0,0,1,152.667,110.147Zm-13.289,6.974v.041a99,99,0,0,1,1.182,12.765H127.231a98.942,98.942,0,0,1,1.182-12.724c1.59.081,3.22.122,4.851.122,2.079,0,4.117-.082,6.114-.2Zm-16.143-.326a97.657,97.657,0,0,0-1.223,13.091H111.007a38.645,38.645,0,0,1,3.832-14.355C117.57,116.061,120.382,116.469,123.236,116.795Zm-5.666-6.036a38.971,38.971,0,0,1,9.783-9.91h.041a87.039,87.039,0,0,0-3.18,10.766C121.972,111.412,119.73,111.126,117.57,110.759Zm4.443,24.428a89.134,89.134,0,0,0,.937,11.093c-3.057.326-6.033.775-8.968,1.387a38.585,38.585,0,0,1-2.976-12.479Zm1.794,16.232a86.063,86.063,0,0,0,3.587,12.765,38.189,38.189,0,0,1-10.965-11.745C118.833,152.031,121.32,151.664,123.806,151.419Zm3.424-16.232h13.289a102.706,102.706,0,0,1-.9,10.766c-2.12-.122-4.239-.2-6.4-.2q-2.568,0-5.136.122A101.21,101.21,0,0,1,127.23,135.188Zm6.685-37.478a79.547,79.547,0,0,1,4.484,14.233q-2.568.122-5.136.122c-1.287,0-2.575-.04-3.823-.08l-.009.039-.041-.041.05,0A80.416,80.416,0,0,1,133.916,97.709Zm-6.644-3.385c.571.082,1.141.2,1.712.326a43.361,43.361,0,0,0-16.1,15.2l.035.008h-.04l0-.008A84.14,84.14,0,0,1,104,107.415,38.506,38.506,0,0,1,127.271,94.324ZM100.9,111.575a83.313,83.313,0,0,0,9.5,2.977,42.894,42.894,0,0,0-3.832,15.334H94.824A38.208,38.208,0,0,1,100.9,111.575Zm-.978,40.252a38.553,38.553,0,0,1-5.055-16.639H106.6a42.6,42.6,0,0,0,3.057,13.5h-.041A77.111,77.111,0,0,0,99.919,151.827Zm27.393,18.882a38.486,38.486,0,0,1-24.58-14.681h-.041a88.9,88.9,0,0,1,9.172-2.651,43.045,43.045,0,0,0,17.161,17.006C128.453,170.5,127.883,170.586,127.312,170.709Zm6.6-3.263a83.59,83.59,0,0,1-4.932-16.313v-.041c1.427-.082,2.853-.082,4.28-.082,1.875,0,3.709.041,5.544.163A86.011,86.011,0,0,1,133.916,167.446Zm5.584-.856a84.63,84.63,0,0,0,4.484-15.008,84.311,84.311,0,0,1,9.865,1.631A38.959,38.959,0,0,1,139.5,166.59Zm2.568,3.63a43.492,43.492,0,0,0,16.264-15.9c1.916.53,3.832,1.142,5.666,1.794A38.623,38.623,0,0,1,142.069,170.219Zm24.743-18.311h0c-2-.775-4.035-1.509-6.114-2.162a43.335,43.335,0,0,0,3.506-14.559h7.745a38.23,38.23,0,0,1-5.1,16.721Z" transform="translate(-67.162 -66.456)" fill="#fff"/>
    <path id="Caminho_32" data-name="Caminho 32" d="M117.91,132.694h.605a18.249,18.249,0,0,1,1.413-2.988l4.522-9.247c2.059-4.119,4-8.2,6.057-12.275,2.342-4.724,2.786-9.328,0-14.132-2.221-3.8-6.784-6.986-11.346-6.986-3.432,0-5.774.323-8.56,2.181a13.485,13.485,0,0,0-4.482,4.684c-2.907,4.805-2.5,9.448-.081,14.294.363.686,11.75,23.581,11.952,24.51Z" transform="translate(-77.2 -64.476)" fill="#00cc96"/>
    <path id="Caminho_33" data-name="Caminho 33" d="M158.532,132.576h.444a18.249,18.249,0,0,1,1.413-2.988l4.522-9.247c2.059-4.119,4-8.2,6.057-12.315,2.342-4.724,2.786-9.328,0-14.132-2.221-3.8-6.784-6.986-11.346-6.986h-1.05v45.668Z" transform="translate(-117.63 -64.358)" fill="#07b587"/>
    <circle id="Elipse_5" data-name="Elipse 5" cx="8.479" cy="8.479" r="8.479" transform="translate(32.532 27.376)" fill="#f7f7f8"/>
    <path id="Caminho_34" data-name="Caminho 34" d="M158.532,105.662v16.959h.121a8.479,8.479,0,0,0,0-16.959Z" transform="translate(-117.643 -78.327)" fill="#ccc"/>
    <path id="Caminho_35" data-name="Caminho 35" d="M150.138,126.778a3.109,3.109,0,1,1-3.109,3.109A3.11,3.11,0,0,1,150.138,126.778Z" transform="translate(-109.111 -94.013)" fill="#006775"/>
    <path id="Caminho_36" data-name="Caminho 36" d="M158.532,126.661v6.178h.121a3.109,3.109,0,1,0,0-6.218h-.121Z" transform="translate(-117.654 -93.896)" fill="#055661"/>
  </g>
  <circle id="Elipse_16" data-name="Elipse 16" cx="27" cy="27" r="27" transform="translate(0 4.098)" fill="#145ca7"/>
  <text id="_2" data-name="2" transform="translate(27 45.098)" fill="#fff" font-size="40" font-family="SFProDisplay-Heavy, SF Pro Display" font-weight="800"><tspan x="-12.451" y="0">2</tspan></text>
</svg>
